<svg xmlns="http://www.w3.org/2000/svg" xmlns:xlink="http://www.w3.org/1999/xlink" viewBox="0 0 2500.29 3333.03"><defs><linearGradient id="linear-gradient" x1="10831.14" y1="1170.74" x2="10995.56" y2="1170.74" gradientTransform="matrix(-0.99, 0.11, 0.11, 0.99, 10901.93, -1290.86)" gradientUnits="userSpaceOnUse"><stop offset="0" stop-color="#303030"/><stop offset="0.01" stop-color="#323232"/><stop offset="0.37" stop-color="#838383"/><stop offset="0.67" stop-color="#bebebe"/><stop offset="0.88" stop-color="#e2e2e2"/><stop offset="1" stop-color="#f0f0f0"/></linearGradient><linearGradient id="linear-gradient-2" x1="11152.38" y1="1514.64" x2="11152.38" y2="695.94" gradientTransform="matrix(-0.99, 0.12, 0.12, 0.99, 11246.93, -1416.82)" gradientUnits="userSpaceOnUse"><stop offset="0" stop-color="#f0f0f0"/><stop offset="0.43" stop-color="#eee"/><stop offset="0.62" stop-color="#e7e7e7"/><stop offset="0.76" stop-color="#dadada"/><stop offset="0.88" stop-color="#c8c8c8"/><stop offset="0.98" stop-color="#b1b1b1"/><stop offset="1" stop-color="#adadad"/></linearGradient><linearGradient id="linear-gradient-3" x1="11692.49" y1="255.36" x2="11696.66" y2="255.36" gradientTransform="matrix(-0.97, 0.25, 0.25, 0.97, 11728.15, -2147.64)" gradientUnits="userSpaceOnUse"><stop offset="0" stop-color="#666"/><stop offset="0.05" stop-color="#717171"/><stop offset="0.33" stop-color="#a8a8a8"/><stop offset="0.57" stop-color="#cfcfcf"/><stop offset="0.75" stop-color="#e7e7e7"/><stop offset="0.87" stop-color="#f0f0f0"/><stop offset="0.94" stop-color="#f6f6f6"/><stop offset="1" stop-color="#fff"/></linearGradient><linearGradient id="linear-gradient-4" x1="11981.62" y1="247.24" x2="11986.42" y2="247.24" gradientTransform="matrix(-0.97, 0.25, 0.25, 0.97, 11728.15, -2147.64)" gradientUnits="userSpaceOnUse"><stop offset="0" stop-color="#fff"/><stop offset="0.06" stop-color="#f6f6f6"/><stop offset="0.13" stop-color="#f0f0f0"/><stop offset="0.25" stop-color="#e7e7e7"/><stop offset="0.43" stop-color="#cfcfcf"/><stop offset="0.67" stop-color="#a8a8a8"/><stop offset="0.95" stop-color="#717171"/><stop offset="1" stop-color="#666"/></linearGradient><linearGradient id="linear-gradient-5" x1="11838.03" y1="658.38" x2="11838.03" y2="594.77" gradientTransform="matrix(-0.97, 0.25, 0.25, 0.97, 11728.15, -2147.64)" gradientUnits="userSpaceOnUse"><stop offset="0" stop-color="#f0f0f0"/><stop offset="0.12" stop-color="#e2e2e2"/><stop offset="0.33" stop-color="#bebebe"/><stop offset="0.63" stop-color="#838383"/><stop offset="0.99" stop-color="#323232"/><stop offset="1" stop-color="#303030"/></linearGradient><linearGradient id="linear-gradient-6" x1="11840.05" y1="-88.51" x2="11840.05" y2="-187.08" gradientTransform="matrix(-0.97, 0.25, 0.25, 0.97, 11728.15, -2147.64)" gradientUnits="userSpaceOnUse"><stop offset="0" stop-color="#303030"/><stop offset="0.08" stop-color="#4c4c4c"/><stop offset="0.26" stop-color="#828282"/><stop offset="0.43" stop-color="#afafaf"/><stop offset="0.59" stop-color="#d2d2d2"/><stop offset="0.75" stop-color="#ebebeb"/><stop offset="0.89" stop-color="#fafafa"/><stop offset="1" stop-color="#fff"/></linearGradient><linearGradient id="linear-gradient-7" x1="11964.75" y1="246.74" x2="11978.33" y2="246.74" gradientTransform="matrix(-0.97, 0.25, 0.25, 0.97, 11728.15, -2147.64)" gradientUnits="userSpaceOnUse"><stop offset="0" stop-color="#f0f0f0"/><stop offset="0.01" stop-color="#ededed"/><stop offset="0.14" stop-color="#b4b4b4"/><stop offset="0.27" stop-color="#858585"/><stop offset="0.4" stop-color="#606060"/><stop offset="0.51" stop-color="#464646"/><stop offset="0.62" stop-color="#363636"/><stop offset="0.7" stop-color="#303030"/></linearGradient><linearGradient id="linear-gradient-8" x1="11703.88" y1="617.05" x2="11969.68" y2="617.05" gradientTransform="matrix(-0.97, 0.25, 0.25, 0.97, 11728.15, -2147.64)" gradientUnits="userSpaceOnUse"><stop offset="0"/><stop offset="0.1" stop-color="#121212"/><stop offset="0.25" stop-color="#2a2a2a"/><stop offset="0.4" stop-color="#393939"/><stop offset="0.52" stop-color="#3e3e3e"/><stop offset="0.63" stop-color="#373737"/><stop offset="0.8" stop-color="#222"/><stop offset="1"/><stop offset="1"/></linearGradient><linearGradient id="linear-gradient-9" x1="11705.85" y1="-113.17" x2="11978.36" y2="-113.17" xlink:href="#linear-gradient-8"/><linearGradient id="linear-gradient-10" x1="11698.51" y1="256.21" x2="11705.29" y2="256.21" gradientTransform="matrix(-0.97, 0.25, 0.25, 0.97, 11728.15, -2147.64)" gradientUnits="userSpaceOnUse"><stop offset="0" stop-color="#3e3e3e"/><stop offset="0.03" stop-color="#3c3c3c"/><stop offset="0.67" stop-color="#131313"/><stop offset="1" stop-color="#030303"/></linearGradient><linearGradient id="linear-gradient-11" x1="11964.73" y1="246.59" x2="11978.35" y2="246.59" gradientTransform="matrix(-0.97, 0.25, 0.25, 0.97, 11728.15, -2147.64)" gradientUnits="userSpaceOnUse"><stop offset="0" stop-color="#030303"/><stop offset="0.33" stop-color="#131313"/><stop offset="0.97" stop-color="#3c3c3c"/><stop offset="1" stop-color="#3e3e3e"/></linearGradient><linearGradient id="linear-gradient-12" x1="11815.82" y1="-115.09" x2="11849.84" y2="-115.09" gradientTransform="matrix(-0.97, 0.25, 0.25, 0.97, 11728.15, -2147.64)" gradientUnits="userSpaceOnUse"><stop offset="0" stop-color="#303030"/><stop offset="0.12" stop-color="#242424"/><stop offset="0.3" stop-color="#171717"/><stop offset="0.48" stop-color="#131313"/><stop offset="0.78" stop-color="#151515"/><stop offset="0.89" stop-color="#1c1c1c"/><stop offset="0.96" stop-color="#272727"/><stop offset="1" stop-color="#303030"/></linearGradient></defs><g id="Capa_3" data-name="Capa 3"><rect x="-2.57" y="-3.86" width="2500.29" height="3333.03" fill="#08caf7"/></g><g id="Layer_1" data-name="Layer 1"><g id="Capa_8" data-name="Capa 8"><path d="M54.85,687.16l1.85,8.58,184.85,692.89c7.31,27.42,30.05,44.34,52.57,40.78.3,0,.59-.07.89-.12l.9-.12.9-.12.89-.13c.3,0,.59-.07.89-.13l.41,0c-16.44.72-32.49-9.18-42-25.79-.57-1-1.11-2-1.63-3h0c-.35-.69-.69-1.4-1-2.12a65.79,65.79,0,0,1-3.65-10.26L63.89,687.17c-.12-.44-.24-.9-.34-1.34-.51-2-.9-4.05-1.2-6-3.85-26.26,10-48,33.09-50.75.45-.07.9-.14,1.36-.19s.91-.13,1.37-.18.9-.14,1.36-.19.91-.13,1.36-.18.91-.14,1.37-.19l.89-.13.47-.05a2.53,2.53,0,0,1,.48-.07l1.2-.27h.06c.39-.07.77-.15,1.16-.21-.4,0-.78.09-1.17.16l-1.37.19-1.36.18-1.34.19h0l-1.37.19c-.46.05-.9.11-1.36.19s-.91.11-1.36.18-.91.11-1.37.19-.9.11-1.36.19-.91.11-1.36.18-.91.12-1.37.2-.9.1-1.36.18l-.33,0C64.24,635.81,48.84,659.3,54.85,687.16Z" fill="url(#linear-gradient)"/><path d="M63.87,687.07l186.84,700.45c6.85,25.67,27.24,42.15,48.29,41.23l.49-.07.9-.13.89-.12.89-.13.9-.11.89-.13.9-.13.9-.12.89-.12h0l.87-.12a33,33,0,0,0,7-1.72l159.7-58.11.3-.11,45-15.57c20.8-7.19,31.56-35,24.31-62.21l-165-618.49h0l-3.52-13.75c-4-15.75-13.14-29.37-24.06-37.76-.88-.69-1.79-1.33-2.69-1.94-.61-.41-1.22-.8-1.84-1.18s-1.22-.73-1.85-1.07a41.77,41.77,0,0,0-6.64-2.94c-.64-.21-1.28-.41-1.93-.59A31.42,31.42,0,0,0,325.73,611L111.14,626.78l-7,1-.48.07c-.46,0-.92.11-1.37.18l-1.36.19c-.46.06-.91.11-1.36.18l-1.36.19c-.46.06-.92.11-1.37.19s-.91.11-1.36.19C70.25,632,56,657.6,63.87,687.07Z" fill="url(#linear-gradient-2)"/><path d="M96.65,638.8a21.84,21.84,0,0,0-1.78,1.43C95.44,639.73,96,639.25,96.65,638.8Zm.66-.45-.58.39c.42-.3.83-.58,1.26-.85C97.76,638,97.53,638.19,97.31,638.35Zm6.94-3.46a26.9,26.9,0,0,0-5,2.25c.26-.15.51-.3.77-.43a25,25,0,0,1,3.58-1.59Zm.1,0-.1,0c.54-.18,1.08-.35,1.64-.5l-.66.2-.36.1Zm-6.35,3c.4-.27.83-.5,1.24-.74l-.51.29-.1.06Zm9.07-3.79c-.4.09-.79.18-1.18.3l.78-.19,1.34-.28-.74.13ZM517.89,1345l0,0a3,3,0,0,0,.3-.16Zm.81-.47-.3.18.05,0Zm.32-.18-.32.18.15-.07Zm5.49-4.49-.27.27h0Zm1.68-1.91-.36.44.34-.41Zm7.6-15.46c-.06.25-.13.5-.2.74,0-.15.09-.3.13-.45l.18-.69C533.87,1322.21,533.83,1322.35,533.79,1322.48Zm1.88-13.85c0,.25,0,.5,0,.74v-.23C535.67,1309,535.68,1308.8,535.67,1308.63Zm0-2a.43.43,0,0,1,0,.16s0-.07,0-.11Zm0-1.67c0,.31,0,.61,0,.91,0,0,0-.06,0-.09C535.65,1305.52,535.64,1305.25,535.62,1305ZM79.45,684.89l180,701.29c6.83,26.68,27,43.61,47.24,41.51h0a33.32,33.32,0,0,0,7.91-1.83l159.7-58.12.31-.11L516,1352.57c19.16-7,28.82-34.63,21.83-61.87L378.93,671.45l0,0-3.52-13.74c-4-15.75-13.13-29.37-24.06-37.76-.88-.69-1.78-1.33-2.69-1.94q-.92-.62-1.83-1.17c-.62-.38-1.23-.74-1.86-1.08a40.73,40.73,0,0,0-6.63-2.93c-.64-.22-1.29-.42-1.93-.59a31,31,0,0,0-10.65-1.13L111.16,626.88l-1.57.12h0c-.26,0-.52,0-.77.06-.44,0-.87.09-1.29.16l-1,.14c-.82.14-1.63.29-2.42.49C83.36,632.87,72.32,657.08,79.45,684.89Zm-.4-8.81a60.27,60.27,0,0,1-.45-7.28c0-.41,0-.82,0-1.24,0-1.1.07-2.21.16-3.29,0-.29,0-.57.07-.86.11-1.09.24-2.16.41-3.21q.06-.48.15-.93c.11-.64.24-1.26.37-1.88.07-.32.14-.66.22-1,.15-.64.32-1.28.5-1.91.1-.37.21-.74.33-1.1.22-.72.46-1.43.72-2.14.12-.34.25-.67.39-1a38.14,38.14,0,0,1,2.59-5.38c.22-.42.47-.84.73-1.24.58-.92,1.19-1.8,1.85-2.65q.25-.36.54-.69a32,32,0,0,1,5-5l.77-.6.79-.58c.25-.17.48-.34.73-.5s.68-.45,1-.65c.52-.32,1-.61,1.57-.9.23-.13.48-.25.72-.37s.71-.35,1.08-.51.52-.24.78-.35l.19-.07c.27-.11.55-.22.84-.32l.94-.34h0c.31-.11.63-.2,1-.3s.64-.2,1-.28.65-.17,1-.24.66-.16,1-.22h0c.66-.13,1.32-.25,2-.34l.9-.11c.36,0,.72-.07,1.09-.09l216.11-16,.94-.05.94,0c.52,0,1,0,1.56,0s1.31.08,2,.15l.91.12c.61.09,1.22.2,1.84.33.31.06.61.13.92.21s.61.14.92.23l.91.25,1,.29c.29.1.57.21.85.29s.59.21.88.33l.08,0,.86.35c.61.25,1.21.51,1.79.79.31.14.61.28.9.43l.89.47.88.47c.3.16.59.33.88.51.58.34,1.16.7,1.74,1.07s1.14.76,1.71,1.16,1.13.83,1.68,1.25c.28.22.56.43.83.66.56.44,1.1.91,1.65,1.37s1.07,1,1.61,1.46,1,.93,1.46,1.42c.29.3.59.6.87.9s.51.54.75.81a63.11,63.11,0,0,1,5,6.16c.23.31.45.63.66.95s.39.55.57.82c.37.54.73,1.1,1.06,1.64.22.33.4.64.6,1l.4.65c.16.29.34.58.5.87s.28.48.42.74.33.59.49.9l.58,1.08.46.9c.48.95.93,1.91,1.36,2.89.15.32.29.65.43,1,.29.66.56,1.33.83,2l.45,1.17c.1.25.19.5.27.74s.15.41.22.62c.13.38.26.78.4,1.16.25.76.49,1.51.71,2.29q.17.51.3,1c.13.46.26.93.38,1.41l1.18,4.55v0L535.7,1286.45a69.66,69.66,0,0,1,1.6,8.27c.06.39.11.79.14,1.18.23,1.95.37,3.9.44,5.84,0,.38,0,.76,0,1.15a67,67,0,0,1-.42,8.3c0,.36-.08.72-.13,1.08-.13,1-.28,2-.47,3-.06.31-.11.63-.18,1-.36,1.76-.78,3.49-1.28,5.17-.08.28-.17.56-.26.84s-.13.44-.21.66l-.34,1-.36,1-.31.85c-.34.84-.7,1.67-1.08,2.48-.12.28-.25.55-.38.82a43.05,43.05,0,0,1-2.37,4.28l-.51.79c-.39.59-.79,1.14-1.19,1.7l-.49.63a32.34,32.34,0,0,1-8,7.39c-.49.33-1,.62-1.5.91h0l-.3.15-.25.13.51-.29.05,0,.25-.16.15-.07.17-.11q.69-.43,1.35-.9l.12-.09.24-.17.87-.66.22-.18.87-.73.19-.17c.34-.31.68-.63,1-1l.35-.36h0l.24-.26a3.07,3.07,0,0,1,.25-.26l.11-.12c.33-.36.64-.72,1-1.09l.34-.41,0,0,.09-.11c.14-.17.28-.34.4-.51l.22-.29.11-.14.09-.12c.6-.81,1.17-1.65,1.71-2.53.13-.21.26-.42.38-.63a44.32,44.32,0,0,0,4.4-10.39c0-.15.09-.3.13-.45l.18-.69c0-.14.08-.27.11-.42.24-1,.46-1.94.65-2.93.05-.24.1-.49.14-.73l.09-.53a1.81,1.81,0,0,0,0-.23c0-.06,0-.11,0-.16s0-.31.06-.47l.06-.37.12-.85c0-.17,0-.34.06-.51s.07-.58.1-.88l0-.26c0-.2,0-.41.05-.62l0-.24c0-.16,0-.31,0-.48,0-.44.07-.88.08-1.32,0-.27,0-.55,0-.83a.09.09,0,0,0,0,0l0-.83v-.23c0-.16,0-.34,0-.51s0-.57,0-.86c0,0,0,0,0-.06s0-.1,0-.16,0-.38,0-.57a1,1,0,0,0,0-.17s0-.07,0-.11v0c0-.25,0-.51,0-.76,0,0,0-.06,0-.09,0-.28,0-.55,0-.82s0-.61,0-.93V1304a63.22,63.22,0,0,0-1.88-11.84L371,658.1c-5.85-22.83-23.86-40.61-41.17-41H329c-.56,0-1.13,0-1.7.07l-216,16.38c-.66,0-1.31.11-1.94.21h0l-.84.13-.45.08-.74.13-.2,0c-.4.09-.79.18-1.18.3l-.66.2-.36.1c-.17.06-.35.1-.52.17l-.1,0a26.9,26.9,0,0,0-5,2.25l-.51.29-.1.06-.63.39h0c-.23.15-.46.3-.68.46l-.58.39s0,0,0,0l0,0a21.84,21.84,0,0,0-1.78,1.43l-.07.06q-.55.48-1.08,1a7.66,7.66,0,0,0-.57.57l-.1.09-.43.45-.2.21c-.15.17-.31.34-.45.51l-.4.47-.14.16-.37.45c-.13.16-.26.32-.39.5s-.22.28-.31.42l-.27.36c-.16.21-.31.44-.46.66l-.28.42c-.13.19-.25.37-.36.56a3,3,0,0,0-.24.38c-.06.08-.11.17-.16.25s-.15.26-.23.39l-.6,1.06-.07.14-.32.61-.09.19c-.08.16-.16.31-.23.47l-.25.53c-.12.26-.24.51-.35.77s-.12.26-.17.4-.21.51-.32.77-.22.54-.31.82q-.3.76-.54,1.56c-.09.27-.18.53-.26.8v0l-.15.48c0,.13-.07.26-.11.39s-.14.52-.21.79c-.21.84-.41,1.7-.57,2.57-.07.3-.12.58-.17.88a2.14,2.14,0,0,0-.06.35c0,.16,0,.33-.09.49v0c0,.21-.07.42-.1.64l0,.25c0,.3-.07.6-.11.91s-.06.6-.1.91c-.05.6-.1,1.21-.14,1.82s-.06,1.26-.07,1.91c0,.23,0,.47,0,.71v1.08a.45.45,0,0,0,0,.11,57.07,57.07,0,0,0,1,9.8c.25,1.32.55,2.65.89,4l179.64,700.06c.15.6.32,1.19.48,1.78l.12.41.45,1.45c.19.58.39,1.16.59,1.73v0c.2.58.42,1.16.64,1.73s.34.88.52,1.31l.06.13c.12.3.24.59.37.87s.23.52.34.77l.3.65c.09.18.16.35.25.52l.24.49.5,1,.52,1,.54,1,.51.89.06.11c.17.29.36.59.54.86l.32.53c.05.07.09.15.15.22.15.26.31.5.48.74s.18.26.27.39.21.3.3.45l.28.39.72,1,.21.28c.21.26.41.53.61.79.56.69,1.12,1.37,1.7,2,.88,1,1.78,1.92,2.71,2.81l.36.34c.12.11.23.23.35.33a42.54,42.54,0,0,0,5.3,4.13c.38.24.75.48,1.12.7l1.13.66.19.11a.91.91,0,0,1,.17.09l.13.07a1.59,1.59,0,0,0,.32.16c.82.43,1.64.82,2.46,1.18l.05,0,.11,0c.49.2,1,.41,1.51.6s1.05.37,1.59.55l.09,0,1.54.44.82.2.19,0,.49.11.14,0,.24,0c.74.13,1.49.24,2.25.34h.28a2.6,2.6,0,0,0,.39,0h.17l.26,0,.27,0,.45,0,.69,0h.88a4.52,4.52,0,0,0,.52,0H304l.36,0a2.17,2.17,0,0,0,.36,0h.09l.37,0h.14l.42,0,.72-.08.45-.06a.86.86,0,0,0,.28,0l.91-.14.14,0,.49-.09h0l-.08,0h0l-.17,0-.38.08h0c-.65.13-1.3.24-2,.32-.35,0-.7.09-1.05.11s-.68.06-1,.08a25.25,25.25,0,0,1-2.88,0l-.77,0c-.73,0-1.46-.1-2.19-.19l-1-.13-1-.16c-.26,0-.53-.09-.81-.17a30.32,30.32,0,0,1-3.09-.77l-.95-.3c-.63-.21-1.27-.43-1.89-.69-.32-.12-.64-.25-.95-.4a30.78,30.78,0,0,1-2.79-1.32l-.84-.44c-.64-.36-1.27-.73-1.9-1.12l-.82-.52c-.92-.61-1.81-1.26-2.69-1.93-.58-.44-1.15-.9-1.7-1.38-.29-.23-.57-.48-.84-.73s-.56-.48-.83-.74l-.8-.77c-.28-.26-.54-.52-.8-.79s-.47-.49-.7-.72c-.73-.77-1.44-1.57-2.12-2.39l-.74-.9c-.23-.28-.45-.57-.67-.86-.34-.44-.67-.88-1-1.33s-.47-.64-.69-1c-.51-.74-1-1.49-1.49-2.26-.17-.25-.33-.52-.48-.78s-.43-.69-.63-1.06-.41-.7-.6-1.06a66.93,66.93,0,0,1-6.16-15.63L82,689.85l-1.31-5.07c-.13-.52-.26-1-.37-1.55-.19-.82-.36-1.63-.53-2.43-.08-.44-.17-.87-.24-1.31s-.14-.87-.22-1.31l-.18-1.29C79.11,676.61,79.08,676.34,79.05,676.08Z" fill="#c7c7c7"/><path d="M517.65,1345.13l.79-.42h0c.51-.28,1-.59,1.5-.9a32.46,32.46,0,0,0,8-7.41l.48-.62c.4-.56.8-1.12,1.18-1.7.18-.26.35-.52.52-.8a41.8,41.8,0,0,0,2.37-4.27c.13-.27.26-.54.38-.81.38-.82.74-1.65,1.07-2.49.11-.28.22-.56.32-.85s.25-.65.36-1l.34-1q.12-.33.21-.66c.09-.28.18-.56.26-.84.5-1.68.93-3.41,1.28-5.17l.18-1c.18-1,.34-2,.47-3,0-.35.1-.72.14-1.08a65,65,0,0,0,.41-8.3c0-.39,0-.77,0-1.15-.06-1.94-.2-3.88-.42-5.84-.05-.39-.09-.79-.15-1.18a69.66,69.66,0,0,0-1.6-8.27L375.56,662.36c-6.6-25.69-27.11-45.57-46.55-45.31,17.55-.12,36,17.85,42,41l162.69,634C539.44,1314.52,532.35,1337.28,517.65,1345.13Z" fill="url(#linear-gradient-3)"/><path d="M82,689.85l177.28,690.87a66.49,66.49,0,0,0,6.16,15.63c.19.36.39.72.6,1.07s.41.7.63,1,.31.53.47.78c.49.77,1,1.52,1.5,2.26.22.33.45.66.69,1s.65.89,1,1.32.45.59.68.87l.74.9c.68.82,1.39,1.62,2.12,2.38.23.24.46.49.7.73s.53.53.8.79.54.52.81.77.54.5.82.75l.84.72c.56.48,1.12.94,1.7,1.37.88.68,1.77,1.32,2.69,1.93l.82.52c.63.4,1.26.77,1.9,1.13l.84.44c.92.49,1.85.93,2.79,1.33l.94.39c.64.25,1.27.48,1.91.69.31.11.63.21.94.3a31.05,31.05,0,0,0,3.09.78q.4.09.81.15c.33.07.65.12,1,.17l1,.13c.73.09,1.46.15,2.19.19l.77,0a27.74,27.74,0,0,0,2.88-.06l1-.07,1.06-.12c.65-.09,1.3-.19,1.95-.32h0l1-.22c-18.72,4-38.26-11.28-44.61-36L84.82,684.4c-6.46-25.18,4.09-47.1,23.45-50.53C86.65,637.48,74.81,661.84,82,689.85Z" fill="url(#linear-gradient-4)"/><path d="M259.27,1380.72l1.3,5.07c7.52,29.28,31.71,46.53,53.62,38.56l201.45-73.18c18.6-6.75,28-33.69,21.23-60.15l-1.17-4.57a69.66,69.66,0,0,1,1.6,8.27c.06.39.1.79.15,1.18.22,2,.36,3.9.42,5.84,0,.38,0,.76,0,1.15a65,65,0,0,1-.41,8.3c0,.36-.09.73-.14,1.08-.13,1-.29,2-.47,3l-.18,1c-.35,1.76-.78,3.49-1.28,5.17-.08.28-.17.56-.26.84s-.13.44-.21.66l-.34,1c-.11.33-.23.65-.36,1s-.21.57-.32.85c-.33.84-.69,1.67-1.07,2.49-.12.27-.25.54-.38.81a41.8,41.8,0,0,1-2.37,4.27c-.17.28-.34.54-.52.8-.38.58-.78,1.14-1.18,1.7l-.48.62a32.46,32.46,0,0,1-8,7.41c-.49.31-1,.62-1.5.9h0c-.52.29-1.05.56-1.58.81l-.83.38c-.51.23-1,.44-1.58.63l-201.54,72.83c-.62.22-1.23.42-1.85.6l-1,.28c-.54.13-1.07.26-1.6.36-.12,0-.25.06-.38.09h0c-.65.13-1.3.23-1.95.32l-1.06.12-1,.07a27.74,27.74,0,0,1-2.88.06c-.26,0-.52,0-.77,0-.73,0-1.46-.1-2.19-.19l-1-.13c-.33-.05-.65-.1-1-.17s-.54-.09-.81-.15a31.05,31.05,0,0,1-3.09-.78l-.94-.3c-.64-.21-1.27-.44-1.91-.69-.31-.12-.63-.25-.94-.39-.94-.4-1.87-.84-2.79-1.33l-.84-.44c-.64-.36-1.27-.73-1.9-1.13-.27-.16-.55-.34-.82-.52-.92-.61-1.81-1.25-2.69-1.93-.58-.43-1.15-.89-1.7-1.37L277,1411c-.28-.25-.56-.49-.82-.75s-.55-.51-.81-.77-.54-.52-.8-.79-.47-.49-.7-.73c-.73-.76-1.44-1.56-2.12-2.38l-.74-.9c-.23-.28-.46-.57-.68-.87s-.66-.87-1-1.32-.47-.64-.69-1c-.51-.74-1-1.49-1.5-2.26-.16-.25-.32-.51-.47-.78s-.43-.69-.63-1-.41-.71-.6-1.07A66.49,66.49,0,0,1,259.27,1380.72Z" fill="url(#linear-gradient-5)"/><path d="M80.69,684.78l1.3,5.07c-7.07-27.57,4.29-51.61,25.28-55.8l1-.18c.34-.06.69-.12,1-.16h0c.64-.08,1.28-.15,2-.2l216-16.38c.57,0,1.14-.06,1.7-.07h0c19.44-.26,39.95,19.62,46.55,45.31l-1.18-4.58c-.12-.47-.25-.94-.38-1.41s-.2-.7-.3-1c-.22-.76-.46-1.52-.72-2.27-.12-.4-.26-.79-.39-1.17-.08-.21-.15-.41-.22-.62s-.18-.49-.28-.74-.29-.78-.44-1.17c-.26-.68-.54-1.35-.83-2-.14-.33-.28-.65-.43-1-.43-1-.88-1.94-1.36-2.89l-.46-.89c-.19-.37-.38-.74-.58-1.1l-.49-.89c-.14-.25-.27-.49-.42-.74s-.34-.58-.51-.87-.25-.44-.39-.65-.39-.63-.59-1c-.34-.56-.7-1.11-1.07-1.65l-.56-.82c-.22-.32-.44-.64-.67-.95a67.44,67.44,0,0,0-5-6.16l-.76-.81c-.29-.3-.57-.6-.87-.9-.49-.48-1-1-1.47-1.42s-1.06-1-1.6-1.46-1.09-.93-1.64-1.37l-.84-.66c-.55-.42-1.11-.84-1.69-1.25s-1.13-.78-1.71-1.16-1.15-.73-1.73-1.07c-.29-.18-.59-.34-.88-.51l-.88-.48-.89-.46-.9-.44c-.59-.27-1.19-.54-1.79-.78l-.86-.35-.08,0-.87-.32L338,614l-1-.29-.91-.25c-.31-.08-.61-.17-.92-.24l-.92-.2c-.62-.14-1.23-.24-1.84-.33l-.92-.12c-.65-.07-1.31-.13-2-.15s-1,0-1.55,0l-1,0-.94.05L110,628.5c-.36,0-.72.06-1.08.1s-.6.06-.9.11c-.68.09-1.34.2-2,.33h0l-1,.22c-.33.07-.66.16-1,.24l-1,.28c-.33.09-.64.2-1,.3,0,0,0,0,0,0l-.93.33-.85.32-.18.07-.78.35c-.36.16-.73.33-1.08.51l-.72.37c-.53.29-1.05.58-1.57.9-.35.2-.7.42-1,.65s-.49.33-.73.5-.53.38-.8.59l-.77.6a31.84,31.84,0,0,0-5,5c-.19.22-.37.45-.55.69-.65.85-1.26,1.73-1.84,2.65-.26.41-.5.82-.74,1.24a38.1,38.1,0,0,0-2.58,5.38c-.14.34-.27.67-.39,1-.27.71-.5,1.42-.72,2.14-.12.36-.23.73-.33,1.1-.18.63-.35,1.27-.5,1.91-.08.33-.15.65-.22,1-.13.62-.26,1.24-.36,1.88-.06.31-.12.61-.16.92-.17,1.06-.3,2.13-.41,3.23,0,.28,0,.56-.07.85-.08,1.08-.14,2.19-.16,3.3,0,.41,0,.81,0,1.23a60.68,60.68,0,0,0,.45,7.29c0,.25.06.52.1.8.06.43.12.86.19,1.29l.21,1.3c.07.44.16.88.24,1.32.16.81.34,1.61.53,2.42C80.43,683.74,80.56,684.26,80.69,684.78Z" fill="url(#linear-gradient-6)"/><path d="M84.82,684.4l179.64,700.05c6.46,25.17,26.58,40.54,45.6,35.79l1-.28c.62-.18,1.23-.38,1.85-.6l201.54-72.83c.54-.19,1.07-.4,1.58-.63l.83-.38c15.24-7.44,22.68-30.61,16.83-53.41L371,658.09c-5.95-23.19-24.44-41.16-42-41h0c-.56,0-1.13,0-1.7.07l-216,16.38c-.67,0-1.32.12-2,.2h0C89.29,636.54,78.25,658.78,84.82,684.4Zm3.3-.31c-6-23.34,3.9-43.73,22.32-46.39l0,0c.59-.07,1.19-.14,1.79-.19l216-16.66c.52,0,1-.06,1.56-.07h.09c16.19-.08,33,16.42,38.41,37.58L531.14,1293c5.3,20.63-1.42,42.09-15.43,48.91-.24.11-.5.24-.75.34-.48.21-1,.41-1.46.58l-201.61,72.54c-.57.2-1.14.38-1.71.55-.31.1-.63.18-.94.26-17.44,4.33-35.84-10-41.68-32.78Z" fill="#3e3e3e"/><path d="M88.2,684.38l179.44,699.29a55.13,55.13,0,0,0,4.62,12,48.74,48.74,0,0,0,5.29,8c.41.49.82,1,1.24,1.44.63.7,1.28,1.38,1.93,2a40,40,0,0,0,5.9,4.8,54.58,54.58,0,0,1-10.38-21l-2.06-8c-.14-.47-.27-1-.4-1.43L94.73,683.7c-.13-.49-.25-1-.35-1.47l-2-7.88a52.16,52.16,0,0,1-1-23.17C86.4,659.77,84.94,671.65,88.2,684.38Z" fill="url(#linear-gradient-7)"/><path d="M91.41,683.79l179.25,698.53c5.29,20.62,22,33.68,37.79,29.77l.78-.2.09,0c.51-.14,1-.3,1.54-.49l201.69-72.25c.45-.16.89-.34,1.32-.53l.07,0,.61-.28c12.74-6.18,18.85-25.65,14-44.42l-163-635.27c-4.93-19.18-20.15-34.16-34.82-34.11h-.21c-.45,0-.91,0-1.36.07l-215.88,17q-.78.06-1.53.15l-.15,0C94.94,644.12,86,662.62,91.41,683.79ZM100,683a35,35,0,0,1-.83-4.25,11.86,11.86,0,0,1-.14-1.18c-.11-1-.16-2-.18-2.94,0-.45,0-.89,0-1.33,0-.89.09-1.74.18-2.59s.22-1.68.39-2.49a24.72,24.72,0,0,1,1.38-4.59c.15-.35.31-.71.47-1a6.94,6.94,0,0,1,.51-1,19.57,19.57,0,0,1,1.16-1.92,9.67,9.67,0,0,1,.65-.89c.17-.21.34-.43.52-.64l.29-.34a15.31,15.31,0,0,1,1.39-1.4,14.2,14.2,0,0,1,1.67-1.34c.29-.21.59-.41.89-.59a8.13,8.13,0,0,1,.86-.48c.37-.2.74-.38,1.12-.55a6.71,6.71,0,0,1,.78-.32l.18-.08a8,8,0,0,1,1-.31l0,0a5.84,5.84,0,0,1,.69-.18,3,3,0,0,1,.59-.14.73.73,0,0,1,.3-.06,4.67,4.67,0,0,1,.65-.13l.23,0h.11l.11,0c.36-.05.71-.08,1-.11l215.68-17.7.89,0H333c10.71.06,21.8,11,25.4,25l163.43,636.93c3.54,13.78-1,28.08-10.34,32.58l-.25.12-.12,0-.07,0-.06,0-.49.21-.48.18-201.88,71.49-.56.19-.28.09-.28.07-.1,0-.1,0-.14,0-.29.07a17.56,17.56,0,0,1-3.26.47,16.31,16.31,0,0,1-2.71-.08c-.45,0-.9-.11-1.34-.19h0c-.45-.08-.89-.17-1.33-.29h0a18.33,18.33,0,0,1-2.62-.88,22.2,22.2,0,0,1-2.54-1.26h0c-.66-.39-1.31-.81-1.94-1.26s-1.42-1.07-2.11-1.67l-.67-.61a33.58,33.58,0,0,1-9.12-16.07Z"/><path d="M301,649.57c0-.19,0-.38.06-.56a1.46,1.46,0,0,1,0-.21C301.06,649.06,301,649.32,301,649.57Z"/><path d="M157.26,661.21c0,.07.08.13.12.21s.23.37.36.56Z"/><path d="M149.17,649.27c1.9,0,3.88,1.66,4.67,4l.18.62c.25.86.54,1.7.87,2.53.11.29.22.57.35.85h0c.14.35.29.68.45,1s.29.6.44.9l.11.21c0,.06.07.14.12.22a1,1,0,0,0,.09.18l.16.29.18.34c.15.27.31.54.47.8l.48.77a.41.41,0,0,0,.07.11.13.13,0,0,0,0,0c.14.22.28.43.43.64s.25.37.38.54a.89.89,0,0,0,.13.18c.06.1.13.18.19.27s.19.25.28.37a.36.36,0,0,1,.07.1l.11.14.19.24.22.27c.06.07.12.15.19.22a.58.58,0,0,0,.1.12l.23.27a.93.93,0,0,0,.16.18,1.55,1.55,0,0,0,.24.27s0,0,.05.07l.06.05c.08.1.17.19.26.29l.1.11.29.31h0l.37.38a4.54,4.54,0,0,0,.38.38l0,0h0a1.73,1.73,0,0,0,.24.23l.28.26.26.23c.15.15.31.28.48.42a3.93,3.93,0,0,0,.38.31l.23.19c.18.14.37.29.56.42s.35.26.53.39a3.19,3.19,0,0,0,.32.23l.38.25s0,0,0,0,.24.16.37.23a.82.82,0,0,0,.17.11l.61.36a17.4,17.4,0,0,0,1.1.6l.23.12,0,0,.45.22a3.89,3.89,0,0,0,.41.18,1.94,1.94,0,0,0,.36.15l.19.08a.44.44,0,0,0,.16.06h0l.93.33.85.26c.31.09.62.16.93.23a16.72,16.72,0,0,0,1.86.29c.25,0,.51,0,.77.06h.8l.75,0h.23l112.34-10.24a1.18,1.18,0,0,1,.21,0l.66-.1.57-.11.13,0a6.36,6.36,0,0,0,.66-.18,12.77,12.77,0,0,0,1.49-.58c.24-.11.47-.23.71-.36l.62-.38a7.12,7.12,0,0,0,.66-.46h0l.11-.08.13-.1a2.54,2.54,0,0,0,.24-.2,2.1,2.1,0,0,0,.27-.24,2.44,2.44,0,0,0,.29-.27l0,0s.1-.1.14-.16a2.4,2.4,0,0,0,.39-.39,1.9,1.9,0,0,0,.29-.33c.12-.14.24-.29.37-.43l.09-.13a2.92,2.92,0,0,0,.21-.28h0l.21-.29.17-.26c.1-.15.19-.29.28-.45s.2-.31.29-.47l.11-.21a2.31,2.31,0,0,0,.18-.35,2.77,2.77,0,0,0,.22-.46,1.15,1.15,0,0,0,.12-.25,2.14,2.14,0,0,0,.12-.28,1.89,1.89,0,0,0,.11-.25h0a1.42,1.42,0,0,0,.07-.22c.08-.2.16-.41.23-.61h0a3,3,0,0,0,.11-.32.42.42,0,0,0,0-.12c0-.1.07-.2.09-.3s0,0,0-.06,0,0,0-.07a.9.9,0,0,0,.08-.28,1.39,1.39,0,0,0,.06-.19,2.06,2.06,0,0,0,.07-.29.83.83,0,0,0,0-.12,2,2,0,0,0,.05-.24,1.27,1.27,0,0,0,.06-.28l.06-.24a.44.44,0,0,1,0-.15.34.34,0,0,1,0-.1c0-.12.05-.25.07-.38a2.33,2.33,0,0,0,.05-.28c0-.06,0-.12,0-.18s.06-.37.08-.56.06-.42.07-.64c0,0,0,0,0-.06a.2.2,0,0,0,0-.11c0-.25.05-.51.06-.77s0-.54,0-.81v-.63a.48.48,0,0,0,0-.17v-.43c0-.3,0-.6-.05-.89s0-.66-.08-1h0c0-.27-.06-.54-.1-.83a24.45,24.45,0,0,0-.42-2.44c0-.19-.08-.38-.14-.59-.39-2.22.53-4.06,2.19-4.31Z"/><path d="M290.42,663.4l-.66.1a2.35,2.35,0,0,0,.37,0l.39-.06.42-.09H291Z"/><path d="M175.59,673.81s0,0,0,0c.17,0,.32,0,.49,0a3.08,3.08,0,0,0,.43,0l.42,0-.75,0Z"/><path d="M301.1,648a0,0,0,0,1,0,0c0-.1,0-.2,0-.3Z"/><path d="M301,649.57c0-.19,0-.38.06-.56a1.46,1.46,0,0,1,0-.21C301.06,649.06,301,649.32,301,649.57Z"/><path d="M300.12,654.1c.05-.11.08-.24.12-.36s0,0,0,.06S300.15,654,300.12,654.1Z"/><path d="M299.74,655.16a2.62,2.62,0,0,0,.15-.39,2.18,2.18,0,0,0,.09-.23h0C299.9,654.75,299.82,655,299.74,655.16Z"/><path d="M299.55,655.63a1.42,1.42,0,0,0,.12-.25h0A1.89,1.89,0,0,1,299.55,655.63Z"/><path d="M298.23,658.1a2.75,2.75,0,0,0,.28-.44,1.78,1.78,0,0,0,.17-.27,2.25,2.25,0,0,0,.12-.21c-.09.16-.19.32-.29.47S298.33,658,298.23,658.1Z"/><path d="M298.06,658.36l-.21.29.06-.07Z"/><path d="M297.17,659.5l.22-.24s0,0,0,0,.09-.11.14-.17C297.41,659.21,297.29,659.36,297.17,659.5Z"/><path d="M294.6,661.75a4.81,4.81,0,0,0,.55-.37.31.31,0,0,0,.11-.09A7.12,7.12,0,0,1,294.6,661.75Z"/><path d="M294,662.13c-.24.13-.47.25-.71.36l.48-.23.23-.12a3.14,3.14,0,0,0,.31-.18,2.4,2.4,0,0,0,.31-.21Z"/><path d="M291.78,663.07a6.36,6.36,0,0,1-.66.18,5.66,5.66,0,0,0,.59-.15l.07,0L292,663a3.82,3.82,0,0,0,.51-.18c.22-.08.42-.17.63-.26a.53.53,0,0,0,.1-.06A12.77,12.77,0,0,1,291.78,663.07Z"/><path d="M290.42,663.4h.1a.66.66,0,0,0,.15,0l.27-.06H291Z"/><path d="M177.21,673.77a.91.91,0,0,0,.23,0l111.89-10.2a1.46,1.46,0,0,0,.22,0Z"/><path d="M176.23,673.8h-.64s0,0,0,0H176a.5.5,0,0,0,.17,0Z"/><path d="M174.66,673.74a16.72,16.72,0,0,1-1.86-.29l.13,0,.8.15a4.58,4.58,0,0,0,.62.08l.31,0h.08c.23,0,.46,0,.69,0C175.17,673.79,174.91,673.76,174.66,673.74Z"/><path d="M171,673c.14.06.29.1.44.15l.41.12.3.08.63.14c-.31-.07-.62-.14-.93-.23Z"/><path d="M171,673l-.93-.33.16.07C170.51,672.8,170.76,672.88,171,673Z"/><path d="M167.13,671.2l-.61-.36.23.15h0Z"/><path d="M165.59,670.23l.27.19a.24.24,0,0,0,.11.06Z"/><path d="M164.18,669.19l.24.18a3.14,3.14,0,0,0,.32.25,4.7,4.7,0,0,0,.53.38c-.18-.13-.36-.25-.53-.39S164.36,669.33,164.18,669.19Z"/><path d="M162.3,667.55a1.84,1.84,0,0,0,.25.23,1.73,1.73,0,0,1-.24-.23Z"/><path d="M161.52,666.78l.21.21.17.16-.37-.38Z"/><path d="M160.81,666l.32.34c-.09-.1-.18-.19-.26-.29Z"/><path d="M157.26,661.21c0,.07.08.13.12.21s.23.37.36.56Z"/><path d="M156.61,660.07l.16.3,0,0Z"/><path d="M274.18,1382.92l2.06,8a54.58,54.58,0,0,0,10.38,21c7,4.57,14.91,6.34,22.66,4.41.31-.08.63-.16.94-.26.57-.16,1.14-.34,1.7-.55L513.54,1343c.49-.17,1-.37,1.45-.58l.75-.34c.35-.17.69-.35,1-.54,5.76-3.18,10.21-8.9,13-16a59.75,59.75,0,0,0-1.47-22.06l-2.2-8.58c2.51,9.8,1.71,19.8-1.64,27.53-2.42,5.62-6.18,10-11,12.37a3.41,3.41,0,0,1-.48.22l-.07,0-.07,0c-.39.16-.79.33-1.19.47l-201.76,72c-.45.16-.92.3-1.38.43l-.09,0-.08,0c-.21.07-.43.11-.63.17C293.86,1411.64,279.32,1400.6,274.18,1382.92Z" fill="url(#linear-gradient-8)"/><path d="M88.15,684.16l-.05-.07c-6-23.34,3.9-43.73,22.32-46.39l.06,0c.58-.07,1.18-.14,1.79-.18l216-16.66c.52,0,1-.07,1.56-.08h.09c.66,0,1.32,0,2,.07,6.73.52,13.48,3.8,19.38,9a62.4,62.4,0,0,1,9.41,20.43l2.2,8.58A46.45,46.45,0,0,0,348,634.79c-5-4.14-10.75-6.6-16.38-6.59h-.13l-.19,0-1.17.07-215.8,17.23c-.37,0-.77.07-1.21.13h0l-.29,0c-14.59,2.15-22.58,18-18.49,36.35l-2-7.87a52.16,52.16,0,0,1-1-23.17C86.34,659.56,84.88,671.44,88.15,684.16Z" fill="url(#linear-gradient-9)"/><path d="M529.7,1325.38c3.63-9.29,4.38-21,1.44-32.39L368.29,658.34a57.44,57.44,0,0,0-17-28.51,62.58,62.58,0,0,1,9.4,20.43l167.58,653.06A59.34,59.34,0,0,1,529.7,1325.38Z" fill="url(#linear-gradient-10)"/><path d="M88.14,684.19l179.44,699.3a54.93,54.93,0,0,0,4.62,12,48.32,48.32,0,0,0,5.29,8c.4.49.82,1,1.24,1.45.61.7,1.26,1.38,1.93,2a38.16,38.16,0,0,0,6,4.87l-.06-.07a54.61,54.61,0,0,1-10.38-21L92.29,674.17A52.15,52.15,0,0,1,91.35,651C86.33,659.59,84.87,671.47,88.14,684.19Z" fill="url(#linear-gradient-11)"/><path d="M214,651.79l31.48-2.67c.78-.06,1.21-.94,1-2l-.25-.94a2.08,2.08,0,0,0-1.89-1.72l-31.49,2.61c-.8.07-1.24,1-1,2l.24.95A2.12,2.12,0,0,0,214,651.79Z" fill="url(#linear-gradient-12)"/><path d="M100,683l178.74,696.56a33.58,33.58,0,0,0,9.12,16.07l.67.61c.69.6,1.39,1.16,2.11,1.67s1.28.87,1.94,1.26h0a22.2,22.2,0,0,0,2.54,1.26,21.78,21.78,0,0,0,2.62.88h0c.43.11.88.2,1.33.29h0c.44.08.89.14,1.34.19a17.41,17.41,0,0,0,6-.39l.29-.07.08,0h.06l.15,0h0l.3-.09.28-.09.56-.19,201.88-71.49.48-.18a4.14,4.14,0,0,1,.49-.19l0,0,.12,0,0,0,.06,0,.25-.12c9.36-4.5,13.88-18.8,10.34-32.58L358.43,659.25c-3.6-14-14.69-25-25.4-25h-.45l-.89,0-29.19,2.4c-1.66.25-2.58,2.09-2.19,4.31,0,.15.07.3.11.45l0,.07s0,.05,0,.07a24.45,24.45,0,0,1,.42,2.44c0,.29.08.56.1.83h0c0,.34.07.67.08,1s0,.59.05.89v.43a.48.48,0,0,1,0,.17v.3c0,.1,0,.2,0,.3a0,0,0,0,0,0,0q0,.4,0,.81c0,.26,0,.52-.06.77a.2.2,0,0,1,0,.11s0,0,0,.06c0,.22,0,.43-.07.64s-.05.38-.08.56,0,.12,0,.18a2.33,2.33,0,0,1-.05.28c0,.13,0,.26-.07.38a.34.34,0,0,0,0,.1.44.44,0,0,0,0,.15l-.06.24a1.27,1.27,0,0,1-.06.28,2,2,0,0,1-.05.24.83.83,0,0,1,0,.12,2.06,2.06,0,0,1-.07.29,1.39,1.39,0,0,1-.06.19.9.9,0,0,1-.08.28s0,.05,0,.07,0,0,0,.06-.06.2-.09.3a.42.42,0,0,1,0,.12,3,3,0,0,1-.11.32h0a1,1,0,0,1-.08.22,2.62,2.62,0,0,1-.15.39,1.42,1.42,0,0,1-.07.22h0a1.89,1.89,0,0,1-.11.25,2.14,2.14,0,0,1-.12.28,1.15,1.15,0,0,1-.12.25,2.77,2.77,0,0,1-.22.46,2.31,2.31,0,0,1-.18.35l-.11.21a2.25,2.25,0,0,1-.12.21c-.06.09-.11.18-.17.26h0a2.75,2.75,0,0,1-.28.44l-.17.26-.15.22-.06.07h0a2.92,2.92,0,0,1-.21.28l-.09.13c-.05.06-.09.12-.14.17s0,0,0,0l-.22.24a1.9,1.9,0,0,1-.29.33,2.4,2.4,0,0,1-.39.39c0,.06-.1.11-.14.16l0,0a2.44,2.44,0,0,1-.29.27,2.1,2.1,0,0,1-.27.24,2.54,2.54,0,0,1-.24.2l-.13.1-.11.08a.47.47,0,0,1-.12.09,4.81,4.81,0,0,1-.55.37,2.4,2.4,0,0,1-.31.21l-.31.17h0l-.23.12-.48.23a.53.53,0,0,1-.1.06c-.21.09-.41.18-.63.26a3.82,3.82,0,0,1-.51.18l-.25.08h0l-.07,0a5.66,5.66,0,0,1-.59.15l-.13,0h-.05l-.27.06a.66.66,0,0,1-.15,0l-.39.06a3.68,3.68,0,0,1-.58.08,1.46,1.46,0,0,1-.22,0l-111.89,10.2a.91.91,0,0,1-.23,0,4.63,4.63,0,0,1-.65,0,3.08,3.08,0,0,1-.43,0,.5.5,0,0,1-.17,0h-.32s0,0,0,0h-.16c-.23,0-.46,0-.69,0h-.08l-.31,0a4.58,4.58,0,0,1-.62-.08l-.8-.15-.13,0-.63-.14-.3-.08h0l-.41-.11c-.15-.05-.3-.09-.44-.15s-.51-.16-.77-.26l-.17-.07a.44.44,0,0,1-.16-.06l-.19-.08a1.94,1.94,0,0,1-.36-.15,3.89,3.89,0,0,1-.41-.18l-.45-.22,0,0-.23-.12a17.4,17.4,0,0,1-1.1-.6l-.36-.2h0l-.23-.15a.82.82,0,0,1-.17-.11c-.13-.07-.25-.15-.37-.23s0,0,0,0a.24.24,0,0,1-.11-.06l-.27-.19a3.19,3.19,0,0,1-.32-.23,4.7,4.7,0,0,1-.53-.38h0a2.43,2.43,0,0,1-.32-.24l-.24-.18L164,669a3.93,3.93,0,0,1-.38-.31c-.17-.14-.33-.27-.48-.42l-.26-.23-.28-.26a1.73,1.73,0,0,1-.24-.23h0l0,0a4.54,4.54,0,0,1-.38-.38l-.17-.16a2.09,2.09,0,0,1-.2-.22h0l-.29-.31-.1-.11c-.09-.1-.18-.19-.26-.29l-.06-.05s0,0-.05-.07a1.55,1.55,0,0,1-.24-.27.93.93,0,0,1-.16-.18l-.23-.27a.58.58,0,0,1-.1-.12c-.07-.07-.13-.15-.19-.22l-.22-.27-.19-.24-.11-.14a.36.36,0,0,0-.07-.1c-.09-.12-.19-.24-.28-.37s-.13-.17-.19-.27a.89.89,0,0,1-.13-.18c-.13-.17-.26-.36-.38-.54s-.29-.42-.43-.64a.13.13,0,0,1,0,0,.41.41,0,0,1-.07-.11l-.48-.77c-.16-.26-.32-.53-.47-.8l0,0-.16-.3-.16-.29a1,1,0,0,1-.09-.18c-.05-.08-.09-.16-.12-.22l-.11-.21c-.15-.3-.3-.6-.44-.9s-.31-.67-.45-1h0c-.13-.28-.24-.56-.35-.85-.33-.83-.62-1.67-.87-2.53a.13.13,0,0,1,0-.08l0-.07c0-.16-.09-.31-.13-.47-.79-2.31-2.77-4-4.67-4L116,652c-.31,0-.66.06-1,.11l-.11,0-.2,0-.2,0a2.94,2.94,0,0,0-.59.12.73.73,0,0,0-.3.06,3,3,0,0,0-.59.14l-.69.18,0,0-1,.31-.18.08c-.27.1-.53.2-.78.32s-.75.35-1.12.55-.58.32-.86.48l-.89.59a17.81,17.81,0,0,0-1.67,1.34,18.37,18.37,0,0,0-1.39,1.4l-.29.34c-.18.21-.35.43-.52.64s-.44.59-.65.89a19.57,19.57,0,0,0-1.16,1.92q-.27.5-.51,1c-.16.34-.32.7-.47,1a26.6,26.6,0,0,0-1.38,4.59c-.17.81-.29,1.64-.39,2.49s-.16,1.7-.18,2.59c0,.44,0,.88,0,1.33,0,1,.07,1.94.18,2.94,0,.38.08.78.14,1.18A35,35,0,0,0,100,683Z" fill="#fcfcfc"/><circle cx="307.93" cy="977.61" r="127.8" fill="#08caf7"/></g><path d="M793.45,1709.71c13.64,18.18,18.19,36.37,27.28,50,6.87,10.29,24.07,20.58,32.11,25q-.26-16.5-.6-33C850.5,1665,847.35,1577,859.4,1490.8c-9-8-14.76-18.89-29.57-44.81-18.19-31.82-150.05-204.6-200.06-268.26s-127.31-136.4-140.95-154.59-45.47-36.37-72.75-45.47S393.34,959.49,379.7,964,357,982.22,357,982.22l-50,31.83-9.1,40.92,13.64-13.64c-4.54,22.73,27.28,31.83,27.28,31.83h22.74l13.64,9.09s13.64,18.19,22.73,13.64,18.19,4.55,36.38,18.19,9.09,18.18,9.09,18.18v40.93s9.09-9.1,13.64-18.19,9.09-9.1,18.19-4.55,40.92,63.66,40.92,63.66v13.64s22.73,27.28,31.83,45.46,22.73,31.83,27.28,50S584.3,1346,584.3,1346l9.09,9.1s27.29,50,40.93,109.12,81.84,159.14,95.48,177.33S779.81,1691.52,793.45,1709.71Z" fill="#001227"/></g><g id="Capa_6" data-name="Capa 6"><rect x="816.64" y="52.2" width="1202" height="3333.03" fill="#fff" opacity="0"/><path d="M912.55,669.47c2.86-1.27,5.6-2.57,8.6-3.83.46-.19.93-.31,1.4-.5,1.8-.69,3.56-1.29,5.34-1.92,23.22-8.62,46.88-12.05,69.31-12.25L1032,544.18C990.7,455,930.43,424.06,930.43,424.06c24.75,87.06-22.09,209.32-43.35,257.88,5.95-3.23,12.22-6.42,18.93-9.56C908.23,671.27,910.36,670.46,912.55,669.47Z" fill="#001227"/><path d="M1247.21,1455.86c-19.15-25.7-35.87-52.75-49-82.08l0,.19C1209.83,1403.54,1226.72,1430.49,1247.21,1455.86Z" fill="#3c3c56"/><path d="M934.91,2413.42c-41.75-175-132.76-278.32-132.76-278.32S889,2187,968.31,2372s-44,375.62-44,375.62l286.92,2.31s-13.92-28.95-33.91-74.08c-18.15-32.74-163.78-298.07-174.17-396.1-8.26-77.94,15.05-129,39.33-149.11,33.34-27.56,73.79-27.56,73.79-27.56s-68.49,7.81-88.42,88.9c-15.7,63.88,51.64,247.64,101.54,370.33-56.36-140.66-115.92-319.6-84.82-384.59,54.17-113.19,287.49-17.5,287.49-17.5s-170.83-176.46-315.74-343.47c-90.6-104.42-35.23-251.32-19.15-412.18-13.52-2.74-131.72-6-146-9.91-5.22,37.62-24.8,197.13-6.47,354.69,21,180.23,97.85,310.56,97.85,310.56l-18.28,27.85-204.08,4.1c27.14,59.58,60.88,116.64,102.19,164.76,136.52,159,10.5,490.26,10.5,490.26l91.39.74S976.66,2588.43,934.91,2413.42Z" fill="#3c3c56"/><path d="M1210,1007.41a533.61,533.61,0,0,0,31.66-154.28c-5.8,56-19.53,106.1-33.78,154.46Z" fill="#3c3c56"/><polygon points="673.66 2781.53 663.93 2746.84 663.93 2855.46 831.95 2855.46 831.95 2746.84 673.66 2781.53" fill="#3c3c56"/><path d="M763.12,939.78c-.94-88.12,252.22-49,252.22-49L850.23,1394.62l146,43.29c59.88-109.6,149.1-630.2,155.73-734.65,8.33-131.07-41.9-309.07-42-309.24-15.18-24.46-25.46-38.34-25.46-38.34s-2.2,19-6.49,47.46c0,0,15.21,16.55,37.27,90.34s0,182,0,182-5.15,7.63-54.65,21.94c-33.29,9.62-84.2,32.82-136.84,58.67,56.28,7.22,79.53,38.37,79.53,38.37h122.91v19.14h-125.1s-34.34,22.69-84.82,17-64.42-24-64.42-24H818.62C752.21,829.85,669,831.43,652,831.49l-.78.44,67,11.15s-88.55,41.35-88.93,39.32c-.05,1-.2,2.06-.2,3.09v20.7c0,16.75,10.07,32,25.4,43.77C665.19,953.72,763.62,986.79,763.12,939.78Z" fill="#3c3c56"/><path d="M1110,394c18.11,30.33,33.76,59.13,47.67,86.78A968.54,968.54,0,0,0,1110,394Z" fill="#3c3c56"/><path d="M652,831.49c17-.06,100.24-1.64,166.65-24.89H788.25l-.6-12.18h59.86s18.22-45.52,75.28-38.56c.37,0,.65.14,1,.19,52.64-25.85,103.55-49,136.84-58.67,49.5-14.31,54.65-21.94,54.65-21.94l-119.1-21.35,1-3.12c-22.43.2-46.09,3.63-69.31,12.25-1.78.63-3.54,1.23-5.34,1.92-.47.19-.94.31-1.4.5-3,1.26-5.74,2.56-8.6,3.83-2.19,1-4.32,1.8-6.54,2.91-6.71,3.14-13,6.33-18.93,9.56C822.7,716.85,801,755.76,782.69,776.65c-21.18,24.22-96.46,47.42-134.13,54.85Z" fill="#3c3c56"/><path d="M1710.23,1996.72c-39.72-280.31-329.86-376-463-540.86-20.49-25.37-37.38-52.32-48.94-81.89,0,0-1.93,1.19-5.65,3-25.08,12.82-26.27,61.21-192.15,27.52-16.08,160.86-75.73,307.76,14.87,412.18,144.91,167,315.74,343.47,315.74,343.47s-233.32-95.69-287.49,17.5c-31.1,65,28.46,243.93,84.82,384.59,27.54,67.7,49.78,116.88,49.78,116.88l-1.85-3.34c20,45.13,33.91,74.08,33.91,74.08l-378.31-3v108.62h556.67S1756.06,2320.17,1710.23,1996.72Z" fill="#001227"/><path d="M1151.92,722c-91.28,306.46-169.84,682.53-169.84,820.06l225.78-108.72s28-493,33.78-552.4c10.12-103.73-4.45-227.13-84-394.88-13.91-29.32-29.56-59.87-47.67-92h0C1110,394.2,1160.25,583,1151.92,722Z" fill="#001227"/><path d="M1015.34,890.8s-253.16-39.14-252.22,49c.5,47-97.93,13.94-108.7,10.18l-1.08-.38c.89.55,1.78,1,2.68,1.58q8.57,5.21,17.06,10c87.74,49.7,169.22,68.85,197.91,74.44l-20.76,359Z" fill="#001227"/><path d="M847.51,794.42H787.65l.6,12.18H851.9s13.94,18.34,64.42,24,84.82-17,84.82-17h125.1V794.42H1003.33s-23.25-31.15-79.53-38.37c-.36,0-.64-.14-1-.19C865.73,748.9,847.51,794.42,847.51,794.42Zm80.67,8.46c19.42-10.25,11.87-32.48,11.87-32.48l17.19,6.83c17.2,6.84,32.42,21.38,32.42,21.38s-10.15,25.64-66.33,23.93-63.93-26-63.93-26l8.39-13.29s2.16,16.24,9.48,19.66S908.77,813.14,928.18,802.88Z" fill="#3c3c56"/><path d="M877.27,802.88c-7.32-3.42-9.48-19.66-9.48-19.66l-8.39,13.29s7.75,24.33,63.93,26,66.33-23.93,66.33-23.93-15.22-14.54-32.42-21.38l-17.19-6.83s7.55,22.23-11.87,32.48S884.6,806.3,877.27,802.88Z" fill="#fcfcfc"/><path d="M645.53,852.12c-12.07,11.86-15.36,22.43-16.23,28.36,0,.67-.1,1.24-.08,1.92h0c.38,2,88.93-39.32,88.93-39.32S663.92,834.05,645.53,852.12Z" fill="#fcfcfc"/><path d="M996.19,654.09l82.33-243.89s1.86,29.46,0,99.41-17.88,156-17.88,156l-64.45-11.55,119.1,21.35s22.06-108.17,0-182S1078,403.14,1078,403.14Z" fill="#fcfcfc"/><path d="M1078.52,509.61c1.86-69.95,0-99.41,0-99.41L996.19,654.09l64.45,11.55S1076.66,579.55,1078.52,509.61Z" fill="#fcfcfc"/><path d="M645.53,852.12c18.39-18.07,72.62-9,72.62-9L648.56,831.5s-22.3,11.68-19.57,52.22a27.21,27.21,0,0,1,.31-3.24C630.17,874.55,633.46,864,645.53,852.12Z" fill="#fcfcfc"/><path d="M1026.87,2191.94c19.93-81.09,88.42-88.9,88.42-88.9s-40.45,0-73.79,27.56c-24.28,20.08-47.59,71.17-39.33,149.11,10.39,98,156,363.36,174.17,396.1l1.85,3.34S1156,2630,1128.41,2562.27C1078.51,2439.58,1011.17,2255.82,1026.87,2191.94Z" fill="#3c3c56"/><path d="M967.31,2372C888,2187,801.15,2135.1,801.15,2135.1s91,103.32,132.76,278.32-10.58,334.16-10.58,334.16S1046.62,2557,967.31,2372Z" fill="#3c3c56"/><path d="M649.35,942.17l53.37,130.49h0l43.67-130.49Z" fill="#fcfcfc"/><path d="M2442.4,2872c-3.78-38.51-68.09-44-276.14-93.52s-480.42-27.51-559.85-22c-63.08,4.37-111.84-25.94-146.3-55.14q-5.58,13.29-11.63,26.15c-20.47,43.55-44.13,83.54-68.41,122.7,5.83,4.86,12.1,10.89,22.07,16.32,30.26,16.51,71.87,22,166.44,16.51s597.68-104.53,416.1-27.51c-147.56,45.46,412.33,44,412.33,44S2446.18,2910.51,2442.4,2872Z" fill="#001227"/><rect x="279.19" y="862.69" width="52.97" height="146.88" transform="translate(-464.34 322.24) rotate(-33.35)" fill="#fff" opacity="0"/><path d="M261.66,909.74l.22-.35a.1.1,0,0,0,0,0l.15-.2a9.07,9.07,0,0,1,2.26-2.13L263,902.24a11.35,11.35,0,0,0-6.65-2c3,2.6,4.26,8.24,4.66,10.54.14-.26.29-.53.46-.81Z" fill="#001227"/><path d="M293,930.58a18.92,18.92,0,0,1-3.79-1.83h0A13.65,13.65,0,0,0,293,930.58Z" fill="#3c3c56"/><path d="M304.74,973.4a30.79,30.79,0,0,0-11.63-7s4.45-.2,11.85,4.69S312.44,986,312.44,986l10.62-6.86s-1.21-.73-3-1.91c-1.46-.76-13.25-7-16-10.36-2.19-2.67-2.57-5.11-2.16-6.44a5.57,5.57,0,0,1,2-2.8,4.87,4.87,0,0,0-1.1,5.41c1,2.73,7.9,7.87,12.71,11.17-5.48-3.81-12-8.95-12.44-12.1-.75-5.48,10.16-7.61,10.16-7.61s-10.56-2.35-19.94-5c-5.87-1.65-7.39-8.4-10.69-14.71-.57.23-5,3-5.62,3.17a67.61,67.61,0,0,0,8.36,13.21,38.4,38.4,0,0,0,11.12,9.07v1.46l-7.42,5.1a31,31,0,0,0,7.76,3.59c8.87,2.54,12.26,17.79,12.26,17.79l3.38-2.19A30,30,0,0,0,304.74,973.4Z" fill="#3c3c56"/><path d="M280.8,915a23.79,23.79,0,0,0-2.58-6.45,36.2,36.2,0,0,1,2.5,6.5Z" fill="#3c3c56"/><polygon points="304.04 993.28 302.84 992.24 305.47 996.23 311.66 992.16 309.02 988.16 304.04 993.28" fill="#3c3c56"/><path d="M262.71,923.31c-2.17-3.22,8.1-7.91,8.1-7.91L276.94,938l6.42-2c-.45-5.48-9.78-26.81-12.07-30.81-2.87-5-9-10.36-9-10.37-1.15-.53-1.86-.79-1.86-.79s.38.75.91,1.9c0,0,1,.24,3.56,2.42s4.41,6.7,4.41,6.7,0,.41-1.48,2.13a44,44,0,0,0-3.62,5.48,5.29,5.29,0,0,1,3.86-.52l4.52-3,.47.7-4.61,3a6,6,0,0,1-2.71,2.68c-2,1-2.95.68-2.95.68l-1.22.81A25.39,25.39,0,0,1,256,922s0,0,0,0l2.73-1.22s-2.26,3.67-2.32,3.61a.67.67,0,0,0,.07.11l.5.77a2.52,2.52,0,0,0,2,1C259.44,926.2,263.87,925,262.71,923.31Z" fill="#3c3c56"/><path d="M262.25,894.82c1.41.68,2.68,1.36,3.86,2A42.86,42.86,0,0,0,262.25,894.82Z" fill="#3c3c56"/><path d="M256,922a25.39,25.39,0,0,0,5.54-4.95l-1.12.73-.32-.43,2.2-1.45a3,3,0,0,1,1.84-3.24l0,0a44,44,0,0,1,3.62-5.48c1.47-1.72,1.48-2.13,1.48-2.13l-4.9,2.1,0-.14a9.07,9.07,0,0,0-2.26,2.13l-.15.2a.1.1,0,0,1,0,0l-.22.35-.17.27c-.17.28-.32.55-.46.81a13.4,13.4,0,0,0-1.55,6c-.2,1.41-2.4,4.09-3.61,5.27Z" fill="#3c3c56"/><path d="M323.18,939.27c-8.25-9.35-21.25-5.85-30.15-8.69a13.65,13.65,0,0,1-3.78-1.83l-.14.25c-.61,1.08.52,2.89-6.4,5.67,3.3,6.31,4.67,13.16,10.53,14.81,9.38,2.64,19.94,5,19.94,5s-10.9,2.13-10.15,7.61c.43,3.14,7,8.28,12.44,12.1,2.65,1.82,4.66,3.09,4.66,3.09l-.15-.07c1.83,1.17,3,1.9,3,1.9l-14,9,2.64,4,20.49-13.49S332.7,950.07,323.18,939.27Z" fill="#001227"/><path d="M271.74,905.88c4.07,13.49,10.29,29.24,13.62,34.3l5.68-9.47s-10.92-18.83-12.14-21.16c-2.14-4.06-5.67-8.25-12.66-12.5-1.22-.74-2.54-1.48-4-2.23h0S268.68,900.56,271.74,905.88Z" fill="#001227"/><path d="M270.81,915.4s-10.27,4.69-8.1,7.91c1.16,1.72-3.27,2.89-3.76,3H259l.87-.05a30,30,0,0,0,9.09-2L276.94,938Z" fill="#001227"/><path d="M262.29,915.92l-2.2,1.45.32.43,2.34-1.54s1,.34,2.95-.68a6,6,0,0,0,2.71-2.68l4.61-3-.47-.7-4.52,3a5.29,5.29,0,0,0-3.86.52l0,0A3,3,0,0,0,262.29,915.92Zm3.18-1.64a1.21,1.21,0,0,0-.35-1.49l.8-.16a5.07,5.07,0,0,1,1.71,0s.25,1.19-1.86,2.49-3,.59-3,.59V915s.47.55.82.5A2.83,2.83,0,0,0,265.47,914.28Z" fill="#3c3c56"/><path d="M263.59,915.51c-.35,0-.82-.5-.82-.5v.7s.88.7,3-.59,1.86-2.49,1.86-2.49a5.07,5.07,0,0,0-1.71,0l-.8.16a1.21,1.21,0,0,1,.35,1.49A2.83,2.83,0,0,1,263.59,915.51Z" fill="#fcfcfc"/><path d="M256.26,922.94a2.15,2.15,0,0,0,.09,1.43l0,.08h0c.06.06,2.32-3.61,2.32-3.61S256.5,921.83,256.26,922.94Z" fill="#fcfcfc"/><path d="M264.37,907.15l-2.88-11s.78,1,2.41,3.66A53.86,53.86,0,0,1,267,906l-2.65,1.14,4.9-2.1s-1.81-4.52-4.41-6.7-3.56-2.42-3.56-2.42Z" fill="#fcfcfc"/><path d="M263.9,899.84c-1.63-2.62-2.41-3.66-2.41-3.66l2.88,11L267,906A53.86,53.86,0,0,0,263.9,899.84Z" fill="#fcfcfc"/><path d="M256.26,922.94c.24-1.11,2.45-2.1,2.45-2.1l-2.84,1.26s-.54,1,.54,2.4a.53.53,0,0,1-.06-.13A2.15,2.15,0,0,1,256.26,922.94Z" fill="#fcfcfc"/><path d="M302.76,963a4.87,4.87,0,0,1,1.1-5.42,5.62,5.62,0,0,0-2.05,2.8c-.41,1.33,0,3.78,2.16,6.44,2.76,3.36,14.55,9.6,16,10.37l.15.07s-2-1.27-4.66-3.09C310.66,970.88,303.73,965.75,302.76,963Z" fill="#3c3c56"/><path d="M304.92,971.08c-7.4-4.88-11.85-4.69-11.85-4.69a30.79,30.79,0,0,1,11.63,7A30,30,0,0,1,312.41,986S312.33,976,304.92,971.08Z" fill="#3c3c56"/><path d="M258.58,926.16l5.13,3.51h0l-1.56-5.86Z" fill="#fcfcfc"/><path d="M371.34,953.75c-1.07-1.32-3.57,0-12.43,3.25s-18.35,10.63-21.14,12.75a9,9,0,0,1-6.72,1.52c.07.42.14.83.2,1.24a54.71,54.71,0,0,1,.46,6.18,4.86,4.86,0,0,0,1.2.06c1.52-.12,3.18-.93,6.53-3.42s19.47-18.33,14.65-11.1c-4.33,5.25,16.24-8.37,16.24-8.37S372.41,955.08,371.34,953.75Z" fill="#001227"/><path d="M1038.6,697.86c-.87-21.53-5.25-17.55-5.25-17.55l-85.14.06c-83.48-2.75-97.27,20.23-97.27,20.23-3.47,21.29-17.86,15.27-17.86,15.27a12.57,12.57,0,0,1-4.66.58c2.62,14.69,5.88,29.28,6.59,44.21,10.66-2.21,12.86,27.72,12.86,27.72,11,88,36.28,109.94,36.28,109.94,16,21.8,67.61,17.06,67.61,17.06,47.72.06,58.67-63,58.67-63,10.74-95.21,22.13-95.09,22.13-95.09C1039.62,756.55,1038.6,697.86,1038.6,697.86Zm-36.13,137.68c-8.8,65.09-45.64,61.43-45.64,61.43-63,11.31-76.19-25.92-76.19-25.92-17.67-22.71-21.79-96.2-21.79-96.2-10.72-64.66,15.29-62.94,15.29-62.94,25.65-16,111.25-8.4,111.25-8.4,23.34-1.53,22.88,42.51,22.88,42.51C1011.1,788,1002.47,835.54,1002.47,835.54Z" fill="#89766e"/><path d="M1038.72,692.31c-.87-21.52-5.25-17.55-5.25-17.55l-85.14.07c-83.48-2.76-97.27,20.22-97.27,20.22-3.48,21.29-17.86,15.27-17.86,15.27a12.8,12.8,0,0,1-5.75.46c2.42,14.82,5.89,29.5,7.18,44.46C845.72,752,848,782.84,848,782.84c11,88,36.29,109.94,36.29,109.94,16,21.8,67.61,17.06,67.61,17.06,47.72,0,58.67-63,58.67-63,10.74-95.22,22.13-95.1,22.13-95.1C1039.74,751,1038.72,692.31,1038.72,692.31ZM1002.59,830c-8.8,65.09-45.64,61.43-45.64,61.43-63,11.32-76.2-25.92-76.2-25.92C863.09,842.8,859,769.3,859,769.3c-10.72-64.65,15.29-62.94,15.29-62.94,25.65-16,111.25-8.4,111.25-8.4,23.34-1.52,22.88,42.51,22.88,42.51C1011.22,782.47,1002.59,830,1002.59,830Z" fill="#fcfcfc"/></g><g id="Capa_9" data-name="Capa 9"><rect x="1038.74" y="687.78" width="114.16" height="39.44" fill="#fcfcfc"/></g></svg>