<svg width="167" height="223" viewBox="0 0 167 223" fill="none" xmlns="http://www.w3.org/2000/svg">
<g clip-path="url(#clip0_122_7801)">
<ellipse cx="84.5" cy="109" rx="70.5" ry="69" fill="#5CC7F2"/>
<mask id="mask0_122_7801" style="mask-type:luminance" maskUnits="userSpaceOnUse" x="-41" y="-79" width="252" height="255">
<path d="M210.333 47.4056C210.333 116.695 154.258 175.365 85.086 175.365C15.9139 175.365 -40.1602 116.695 -40.1602 47.4056C-40.1602 -21.8837 15.9146 -78.054 85.086 -78.054C154.257 -78.054 210.333 -21.8837 210.333 47.4056Z" fill="white"/>
</mask>
<g mask="url(#mask0_122_7801)">
<path d="M70.719 79.063C71.0476 78.9164 71.3622 78.7679 71.7068 78.6234C71.7596 78.6013 71.8137 78.5873 71.8671 78.5652C72.0742 78.4856 72.2759 78.416 72.4803 78.3451C75.144 77.3535 77.8577 76.9601 80.4326 76.94L84.4254 64.6634C79.6832 54.4081 72.7688 50.858 72.7688 50.858C75.6088 60.8638 70.2347 74.9155 67.7948 80.4974C68.4774 80.1261 69.1974 79.7615 69.9669 79.3982C70.224 79.2697 70.4658 79.1767 70.719 79.063Z" fill="#001227"/>
<path d="M109.117 169.44C106.919 166.487 105 163.378 103.495 160.007L103.501 160.029C104.828 163.428 106.766 166.525 109.117 169.44Z" fill="#3C3C56"/>
<path d="M73.2852 279.491C68.4955 259.378 58.0532 247.504 58.0532 247.504C58.0532 247.504 68.0173 253.459 77.1171 274.725C86.2169 295.991 72.0689 317.894 72.0689 317.894L104.988 318.161C104.988 318.161 103.39 314.833 101.097 309.648C99.0149 305.885 82.3062 275.392 81.1146 264.124C80.1668 255.167 82.8405 249.295 85.6271 246.988C89.4523 243.82 94.0923 243.82 94.0923 243.82C94.0923 243.82 86.2349 244.718 83.9479 254.038C82.1445 261.379 89.8731 282.498 95.5978 296.599C89.1317 280.432 82.2988 259.867 85.8669 252.399C92.0785 239.389 118.851 250.391 118.851 250.391C118.851 250.391 99.2514 230.111 82.6248 210.917C72.2299 198.916 78.5825 182.033 80.428 163.547C78.8771 163.232 65.3156 162.857 63.6812 162.41C63.08 166.734 60.8358 185.066 62.9391 203.174C65.3436 223.887 74.1669 238.866 74.1669 238.866L72.0689 242.059L48.6549 242.527C51.7688 249.374 55.6387 255.932 60.3789 261.462C76.0417 279.735 61.5812 317.806 61.5812 317.806L72.0676 317.89C72.0676 317.89 78.0756 299.605 73.2852 279.491Z" fill="#3C3C56"/>
<path d="M104.844 117.901C107.031 111.952 108.14 105.992 108.477 100.171C107.812 106.612 106.236 112.365 104.603 117.922L104.844 117.901Z" fill="#3C3C56"/>
<path d="M53.5754 110.127C53.4679 99.9992 82.5125 104.498 82.5125 104.498L63.5689 162.402L80.3157 167.378C87.1853 154.782 97.4219 94.9504 98.1833 82.9468C99.1391 67.8822 93.3742 47.4257 93.3702 47.4056C91.629 44.5956 90.4487 42.9999 90.4487 42.9999C90.4487 42.9999 90.1969 45.185 89.7047 48.4541C89.7047 48.4541 91.4493 50.3555 93.9794 58.8359C96.5095 67.3162 93.9794 79.7494 93.9794 79.7494C93.9794 79.7494 93.3889 80.6252 87.7096 82.2697C83.8897 83.3764 78.0494 86.0419 72.0094 89.0125C78.4669 89.8428 81.1346 93.423 81.1346 93.423H95.2364V95.6222H80.8854C80.8854 95.6222 76.9447 98.2315 71.1545 97.5798C65.3642 96.9282 63.7626 94.8227 63.7626 94.8227H59.9427C52.3237 97.4989 42.7738 97.6762 40.8234 97.6836C40.7934 97.701 40.764 97.715 40.7339 97.7344L48.415 99.0157C48.415 99.0157 38.2553 103.766 38.2119 103.534C38.2065 103.652 38.1885 103.771 38.1885 103.889V106.269C38.1885 108.193 39.3447 109.949 41.1033 111.298C42.3403 111.733 53.6342 115.531 53.5754 110.127Z" fill="#3C3C56"/>
<path d="M93.3702 47.4056C95.4475 50.8914 97.2442 54.202 98.8392 57.3793C97.1874 53.9634 95.362 50.6345 93.3702 47.4056Z" fill="#3C3C56"/>
<path d="M40.8235 97.6829C42.7738 97.6756 52.3238 97.4949 59.9427 94.822H56.4589L56.3921 93.4224H63.257C63.257 93.4224 65.3476 88.191 71.8946 88.9905C71.9366 88.9959 71.9694 89.0066 72.0101 89.0119C78.0501 86.0413 83.8904 83.3757 87.7103 82.2691C93.3876 80.6246 93.9801 79.7488 93.9801 79.7488L80.3157 77.2947L80.4326 76.9367C77.8578 76.9595 75.144 77.3529 72.4803 78.3417C72.2759 78.4127 72.0742 78.4822 71.8672 78.5618C71.8137 78.5839 71.7596 78.598 71.7069 78.6201C71.3622 78.7646 71.0476 78.9131 70.719 79.0596C70.4685 79.1734 70.2241 79.2664 69.9696 79.3942C69.1995 79.7548 68.4801 80.1221 67.7975 80.4934C60.411 84.5078 57.9176 88.9765 55.8203 91.3777C53.3904 94.1617 44.7535 96.8272 40.4314 97.6816C40.4314 97.6829 40.5917 97.6829 40.8235 97.6829Z" fill="#3C3C56"/>
<path d="M162.238 231.6C157.681 199.385 124.392 188.384 109.115 169.44C106.764 166.525 104.827 163.428 103.499 160.029C103.499 160.029 103.279 160.163 102.851 160.378C99.9741 161.85 99.8371 167.412 80.806 163.541C78.9612 182.028 72.117 198.911 82.5112 210.911C99.1378 230.105 118.737 250.385 118.737 250.385C118.737 250.385 91.9677 239.387 85.7533 252.393C82.1853 259.862 89.0181 280.426 95.485 296.593C98.6442 304.373 101.196 310.025 101.196 310.025L100.984 309.642C103.277 314.827 104.875 318.155 104.875 318.155L61.4703 317.805V330.287H125.338C125.338 330.287 167.498 268.773 162.238 231.6Z" fill="#001227"/>
<path d="M98.1846 85.0992C87.7116 120.32 78.698 163.541 78.698 179.346L104.603 166.852C104.603 166.852 107.813 110.198 108.477 103.367C109.638 91.4446 107.967 77.2632 98.8392 57.9835C97.2435 54.6134 95.4475 51.1029 93.3703 47.4056C93.3756 47.427 99.1391 69.1227 98.1846 85.0992Z" fill="#001227"/>
<path d="M82.5125 104.499C82.5125 104.499 53.4679 100.001 53.5754 110.127C53.6335 115.529 42.3403 111.729 41.104 111.297L40.9797 111.253C41.0826 111.32 41.1848 111.373 41.2877 111.435C41.9422 111.834 42.5948 112.218 43.2453 112.588C53.3116 118.299 62.6598 120.501 65.9547 121.144L63.5716 162.401L82.5125 104.499Z" fill="#001227"/>
<path d="M63.2569 93.423H56.39L56.4568 94.8227H63.7605C63.7605 94.8227 65.3636 96.9302 71.1524 97.5799C76.9413 98.2295 80.8854 95.6222 80.8854 95.6222H95.2391V93.423H81.1352C81.1352 93.423 78.4675 89.8429 72.01 89.0126C71.9693 89.0072 71.9366 88.9965 71.8945 88.9911C65.3475 88.1916 63.2569 93.423 63.2569 93.423ZM72.5137 94.3952C74.7405 93.2163 73.8742 90.6618 73.8742 90.6618L75.8473 91.4473C77.8203 92.2334 79.5669 93.9041 79.5669 93.9041C79.5669 93.9041 78.4021 96.8479 71.9566 96.6552C65.5112 96.4626 64.6222 93.6632 64.6222 93.6632L65.584 92.1357C65.584 92.1357 65.8318 94.0024 66.672 94.3952C67.5123 94.7879 70.2861 95.5747 72.5137 94.3952Z" fill="#3C3C56"/>
<path d="M66.672 94.3952C65.8318 94.0024 65.584 92.1357 65.584 92.1357L64.6222 93.6632C64.6222 93.6632 65.5112 96.4585 71.9566 96.6552C78.4021 96.852 79.567 93.9041 79.567 93.9041C79.567 93.9041 77.8203 92.2314 75.8473 91.4473L73.8723 90.6618C73.8723 90.6618 74.7406 93.2163 72.5117 94.3952C70.2828 95.574 67.513 94.7886 66.672 94.3952Z" fill="#FCFCFC"/>
<path d="M40.0841 100.053C38.6988 101.417 38.3214 102.632 38.2212 103.314C38.2212 103.391 38.2105 103.456 38.2125 103.534C38.2559 103.767 48.4157 99.0157 48.4157 99.0157C48.4157 99.0157 42.1933 97.978 40.0841 100.053Z" fill="#FCFCFC"/>
<path d="M80.3157 77.2953L89.7621 49.2657C89.7621 49.2657 89.9752 52.6518 89.7621 60.6899C89.549 68.728 87.7102 78.6207 87.7102 78.6207L80.3157 77.2926L93.98 79.7521C93.98 79.7521 96.5108 67.3196 93.98 58.8386C91.4493 50.3576 89.7053 48.4568 89.7053 48.4568L80.3157 77.2953Z" fill="#FCFCFC"/>
<path d="M89.7621 60.6899C89.9752 52.6518 89.7621 49.2657 89.7621 49.2657L80.3157 77.2953L87.7102 78.6234C87.7102 78.6234 89.5484 68.728 89.7621 60.6899Z" fill="#FCFCFC"/>
<path d="M40.0841 100.053C42.1934 97.9793 48.4157 99.0157 48.4157 99.0157L40.4314 97.6829C40.4314 97.6829 37.8732 99.0251 38.1865 103.685C38.1909 103.56 38.2025 103.436 38.2212 103.312C38.3214 102.634 38.6988 101.417 40.0841 100.053Z" fill="#FCFCFC"/>
<path d="M40.5222 110.403L46.6457 125.4L51.6551 110.403H40.5222Z" fill="#FCFCFC"/>
</g>
<path d="M85.0859 176.852C122.313 176.852 152.491 146.622 152.491 109.331C152.491 72.0408 122.313 41.811 85.0859 41.811C47.859 41.811 17.6805 72.0408 17.6805 109.331C17.6805 146.622 47.859 176.852 85.0859 176.852Z" stroke="#5CC7F2" stroke-width="5" stroke-miterlimit="10"/>
<path d="M39.84 204.6C39.84 202.952 40.208 201.48 40.944 200.184C41.696 198.872 42.712 197.856 43.992 197.136C45.288 196.4 46.736 196.032 48.336 196.032C50.208 196.032 51.848 196.512 53.256 197.472C54.664 198.432 55.648 199.76 56.208 201.456H52.344C51.96 200.656 51.416 200.056 50.712 199.656C50.024 199.256 49.224 199.056 48.312 199.056C47.336 199.056 46.464 199.288 45.696 199.752C44.944 200.2 44.352 200.84 43.92 201.672C43.504 202.504 43.296 203.48 43.296 204.6C43.296 205.704 43.504 206.68 43.92 207.528C44.352 208.36 44.944 209.008 45.696 209.472C46.464 209.92 47.336 210.144 48.312 210.144C49.224 210.144 50.024 209.944 50.712 209.544C51.416 209.128 51.96 208.52 52.344 207.72H56.208C55.648 209.432 54.664 210.768 53.256 211.728C51.864 212.672 50.224 213.144 48.336 213.144C46.736 213.144 45.288 212.784 43.992 212.064C42.712 211.328 41.696 210.312 40.944 209.016C40.208 207.72 39.84 206.248 39.84 204.6ZM58.2139 206.304C58.2139 204.96 58.4779 203.768 59.0059 202.728C59.5499 201.688 60.2779 200.888 61.1899 200.328C62.1179 199.768 63.1499 199.488 64.2859 199.488C65.2779 199.488 66.1419 199.688 66.8779 200.088C67.6299 200.488 68.2299 200.992 68.6779 201.6V199.704H72.0619V213H68.6779V211.056C68.2459 211.68 67.6459 212.2 66.8779 212.616C66.1259 213.016 65.2539 213.216 64.2619 213.216C63.1419 213.216 62.1179 212.928 61.1899 212.352C60.2779 211.776 59.5499 210.968 59.0059 209.928C58.4779 208.872 58.2139 207.664 58.2139 206.304ZM68.6779 206.352C68.6779 205.536 68.5179 204.84 68.1979 204.264C67.8779 203.672 67.4459 203.224 66.9019 202.92C66.3579 202.6 65.7739 202.44 65.1499 202.44C64.5259 202.44 63.9499 202.592 63.4219 202.896C62.8939 203.2 62.4619 203.648 62.1259 204.24C61.8059 204.816 61.6459 205.504 61.6459 206.304C61.6459 207.104 61.8059 207.808 62.1259 208.416C62.4619 209.008 62.8939 209.464 63.4219 209.784C63.9659 210.104 64.5419 210.264 65.1499 210.264C65.7739 210.264 66.3579 210.112 66.9019 209.808C67.4459 209.488 67.8779 209.04 68.1979 208.464C68.5179 207.872 68.6779 207.168 68.6779 206.352ZM79.2555 202.464V208.896C79.2555 209.344 79.3595 209.672 79.5675 209.88C79.7915 210.072 80.1595 210.168 80.6715 210.168H82.2315V213H80.1195C77.2875 213 75.8715 211.624 75.8715 208.872V202.464H74.2875V199.704H75.8715V196.416H79.2555V199.704H82.2315V202.464H79.2555ZM93.7269 210.336H99.2469V213H90.3669V196.248H93.7269V210.336ZM103.087 198.12C102.495 198.12 101.999 197.936 101.599 197.568C101.215 197.184 101.023 196.712 101.023 196.152C101.023 195.592 101.215 195.128 101.599 194.76C101.999 194.376 102.495 194.184 103.087 194.184C103.679 194.184 104.167 194.376 104.551 194.76C104.951 195.128 105.151 195.592 105.151 196.152C105.151 196.712 104.951 197.184 104.551 197.568C104.167 197.936 103.679 198.12 103.087 198.12ZM104.743 199.704V213H101.383V199.704H104.743ZM114.158 202.464H111.83V213H108.422V202.464H106.91V199.704H108.422V199.032C108.422 197.4 108.886 196.2 109.814 195.432C110.742 194.664 112.142 194.304 114.014 194.352V197.184C113.198 197.168 112.63 197.304 112.31 197.592C111.99 197.88 111.83 198.4 111.83 199.152V199.704H114.158V202.464ZM128.696 206.064C128.696 206.544 128.664 206.976 128.6 207.36H118.88C118.96 208.32 119.296 209.072 119.888 209.616C120.48 210.16 121.208 210.432 122.072 210.432C123.32 210.432 124.208 209.896 124.736 208.824H128.36C127.976 210.104 127.24 211.16 126.152 211.992C125.064 212.808 123.728 213.216 122.144 213.216C120.864 213.216 119.712 212.936 118.688 212.376C117.68 211.8 116.888 210.992 116.312 209.952C115.752 208.912 115.472 207.712 115.472 206.352C115.472 204.976 115.752 203.768 116.312 202.728C116.872 201.688 117.656 200.888 118.664 200.328C119.672 199.768 120.832 199.488 122.144 199.488C123.408 199.488 124.536 199.76 125.528 200.304C126.536 200.848 127.312 201.624 127.856 202.632C128.416 203.624 128.696 204.768 128.696 206.064ZM125.216 205.104C125.2 204.24 124.888 203.552 124.28 203.04C123.672 202.512 122.928 202.248 122.048 202.248C121.216 202.248 120.512 202.504 119.936 203.016C119.376 203.512 119.032 204.208 118.904 205.104H125.216Z" fill="black"/>
</g>
<defs>
<clipPath id="clip0_122_7801">
<rect width="167" height="223" fill="white"/>
</clipPath>
</defs>
</svg>
